<?xml version="1.0" encoding="UTF-8"?><svg id="_레이어_2" xmlns="http://www.w3.org/2000/svg" xmlns:xlink="http://www.w3.org/1999/xlink" viewBox="0 0 241.23 64.192"><defs><style>.cls-1{fill:url(#_무제_그라디언트_24-8);}.cls-2{fill:url(#_무제_그라디언트_24-4);}.cls-3{fill:url(#_무제_그라디언트_24-10);}.cls-4{fill:url(#_무제_그라디언트_24-9);}.cls-5{fill:url(#_무제_그라디언트_24-7);}.cls-6{fill:url(#_무제_그라디언트_24-12);}.cls-7{fill:url(#_무제_그라디언트_24);}.cls-8{fill:url(#_무제_그라디언트_24-6);}.cls-9{fill:#df591d;}.cls-10{fill:url(#_무제_그라디언트_24-11);}.cls-11{fill:url(#_무제_그라디언트_24-5);}.cls-12{fill:url(#_무제_그라디언트_24-3);}.cls-13{fill:#231815;}.cls-14{fill:url(#_무제_그라디언트_24-2);}</style><linearGradient id="_무제_그라디언트_24" x1="1.265" y1="55.441" x2="65.605" y2="55.441" gradientTransform="translate(-5.833 5.304) rotate(-8.709)" gradientUnits="userSpaceOnUse"><stop offset=".278" stop-color="#eb5b18"/><stop offset="1" stop-color="#f8b62d"/></linearGradient><linearGradient id="_무제_그라디언트_24-2" y1="35.408" y2="35.408" xlink:href="#_무제_그라디언트_24"/><linearGradient id="_무제_그라디언트_24-3" x1="1.265" y1="19.355" x2="65.605" y2="19.355" xlink:href="#_무제_그라디언트_24"/><linearGradient id="_무제_그라디언트_24-4" y1="14.621" y2="14.621" xlink:href="#_무제_그라디언트_24"/><linearGradient id="_무제_그라디언트_24-5" x1="1.265" y1="39.294" x2="65.605" y2="39.294" xlink:href="#_무제_그라디언트_24"/><linearGradient id="_무제_그라디언트_24-6" y1="37.107" y2="37.107" xlink:href="#_무제_그라디언트_24"/><linearGradient id="_무제_그라디언트_24-7" y1="17.548" y2="17.548" xlink:href="#_무제_그라디언트_24"/><linearGradient id="_무제_그라디언트_24-8" y1="48.968" y2="48.968" xlink:href="#_무제_그라디언트_24"/><linearGradient id="_무제_그라디언트_24-9" y1="58.975" y2="58.975" xlink:href="#_무제_그라디언트_24"/><linearGradient id="_무제_그라디언트_24-10" x1="1.265" y1="10.516" x2="65.605" y2="10.516" xlink:href="#_무제_그라디언트_24"/><linearGradient id="_무제_그라디언트_24-11" y1="40.521" y2="40.521" xlink:href="#_무제_그라디언트_24"/><linearGradient id="_무제_그라디언트_24-12" y1="4.445" y2="4.445" xlink:href="#_무제_그라디언트_24"/></defs><g id="_레이어_1-2"><path class="cls-13" d="m78.354,48.876h1.15v10.336h-1.15v-10.336Zm.912,9.17h2.175c.802,0,1.411-.211,1.828-.633s.625-1.038.625-1.848v-3.043c0-.81-.208-1.427-.625-1.848s-1.026-.633-1.828-.633h-2.175v-1.166h2.135c.793,0,1.462.14,2.007.419.544.28.955.696,1.233,1.248.278.552.417,1.231.417,2.036v2.929c0,.806-.139,1.483-.417,2.033-.277.55-.69.966-1.236,1.248s-1.217.423-2.01.423h-2.129v-1.166Z"/><path class="cls-13" d="m87.206,48.876h1.151v1.237h-1.151v-1.237Zm0,2.957h1.151v7.379h-1.151v-7.379Z"/><path class="cls-13" d="m91.791,59.198c-.35-.081-.679-.201-.985-.363-.307-.161-.583-.36-.83-.597l.674-.889c.37.289.747.508,1.13.658.383.149.756.224,1.118.224.595,0,1.049-.104,1.362-.313.313-.209.469-.512.469-.91,0-.284-.079-.496-.238-.636s-.358-.234-.599-.281-.576-.09-1.008-.128c-.04,0-.082,0-.126-.003s-.086-.006-.126-.011c-.018,0-.036,0-.053-.003s-.035-.004-.053-.004c-.45-.043-.827-.114-1.134-.213-.306-.1-.562-.284-.767-.554-.205-.27-.308-.659-.308-1.166,0-.498.104-.915.311-1.251s.511-.592.912-.768.895-.263,1.481-.263c.326,0,.645.033.955.1.31.066.609.165.896.295.286.13.555.292.807.487l-.681.881c-.335-.223-.673-.391-1.015-.505-.342-.114-.669-.171-.982-.171-.52,0-.917.1-1.19.299s-.41.488-.41.867c0,.251.075.437.225.558.15.12.34.201.572.242s.554.074.969.103c.022,0,.045.001.069.003.024.003.047.004.07.004h.039c.013,0,.027.002.04.007.481.033.889.101,1.227.202.337.102.62.304.849.605.229.301.344.736.344,1.304,0,.502-.11.924-.331,1.265s-.547.601-.981.778c-.434.178-.966.267-1.597.267-.388,0-.757-.04-1.108-.121Z"/><path class="cls-13" d="m96.997,51.833h3.094v1.095h-3.094v-1.095Zm1.094,6.92c-.258-.329-.387-.816-.387-1.461v-7.606h1.15v7.621c0,.251.05.443.149.576s.245.199.44.199h.648v1.166h-.781c-.555,0-.962-.164-1.219-.494Z"/><path class="cls-13" d="m101.943,51.833h1.15v7.379h-1.15v-7.379Zm3.418,1.18c-.199-.081-.428-.121-.688-.121-.502,0-.891.145-1.167.437-.275.291-.413.695-.413,1.212l-.139-1.422c.229-.441.53-.783.903-1.027.372-.244.781-.366,1.226-.366.312,0,.597.049.849.145.254.098.476.241.665.43l-.747,1.066c-.128-.156-.291-.275-.489-.355Z"/><path class="cls-13" d="m107.82,48.876h1.15v1.237h-1.15v-1.237Zm0,2.957h1.15v7.379h-1.15v-7.379Z"/><path class="cls-13" d="m111.119,48.876h1.151v10.336h-1.151v-10.336Zm1.815,10.13c-.346-.209-.599-.526-.757-.953l.093-1.543c0,.322.062.613.185.871s.3.463.532.615c.232.152.508.227.83.227.511,0,.905-.164,1.183-.494.278-.329.417-.792.417-1.39v-1.599c0-.611-.139-1.084-.417-1.418-.278-.334-.672-.501-1.183-.501-.322,0-.598.073-.83.22-.231.147-.409.348-.532.604s-.185.54-.185.853l-.139-1.422c.221-.455.514-.794.88-1.017s.782-.334,1.249-.334c.485,0,.9.117,1.246.352.346.234.609.577.79,1.027.181.45.271.993.271,1.628v1.607c0,.626-.092,1.161-.278,1.607-.185.445-.456.786-.812,1.02-.357.235-.785.352-1.283.352-.493,0-.913-.104-1.259-.313Z"/><path class="cls-13" d="m119.469,56.319c0,.583.138,1.035.416,1.354.278.32.672.48,1.184.48.506,0,.898-.145,1.173-.434.275-.289.413-.699.413-1.23l.092,1.543c-.154.365-.407.671-.756.917-.351.246-.784.37-1.299.37-.758,0-1.343-.262-1.755-.785s-.618-1.262-.618-2.215v-4.486h1.151v4.486Zm3.187-4.486h1.143v7.379h-1.143v-7.379Z"/><path class="cls-13" d="m125.32,51.833h3.094v1.095h-3.094v-1.095Zm1.094,6.92c-.258-.329-.387-.816-.387-1.461v-7.606h1.151v7.621c0,.251.049.443.149.576s.245.199.44.199h.647v1.166h-.78c-.555,0-.962-.164-1.22-.494Z"/><path class="cls-13" d="m130.364,48.876h1.15v1.237h-1.15v-1.237Zm0,2.957h1.15v7.379h-1.15v-7.379Z"/><path class="cls-13" d="m134.767,58.942c-.424-.251-.746-.617-.969-1.099-.223-.481-.334-1.06-.334-1.738v-1.201c0-.668.111-1.241.334-1.717.223-.477.545-.839.969-1.088.423-.248.932-.373,1.527-.373s1.104.125,1.527.373c.424.249.746.611.969,1.088.223.476.334,1.048.334,1.717v1.223c0,.673-.111,1.247-.334,1.724-.223.476-.545.84-.969,1.091-.423.251-.932.377-1.527.377s-1.104-.126-1.527-.377Zm2.767-1.318c.293-.353.44-.852.44-1.497v-1.223c0-.64-.147-1.135-.44-1.486s-.709-.526-1.246-.526c-.534,0-.945.175-1.236.526s-.437.846-.437,1.486v1.223c0,.645.146,1.144.437,1.497s.702.529,1.236.529c.537,0,.954-.176,1.246-.529Z"/><path class="cls-13" d="m141.041,51.833h1.151v7.379h-1.151v-7.379Zm4.364,2.908c0-.588-.142-1.043-.427-1.365s-.687-.483-1.207-.483c-.502,0-.892.142-1.167.427-.276.284-.413.687-.413,1.208l-.139-1.422c.225-.464.523-.81.896-1.038s.794-.341,1.266-.341c.745,0,1.321.262,1.729.785.408.524.611,1.264.611,2.222v4.479h-1.15v-4.471Z"/><path class="cls-13" d="m152.373,48.876h1.149v10.336h-1.149v-10.336Zm.911,9.17h2.175c.802,0,1.411-.211,1.827-.633.417-.422.626-1.038.626-1.848v-3.043c0-.81-.209-1.427-.626-1.848-.416-.422-1.026-.633-1.827-.633h-2.175v-1.166h2.135c.793,0,1.463.14,2.007.419s.955.696,1.233,1.248.416,1.231.416,2.036v2.929c0,.806-.138,1.483-.416,2.033s-.69.966-1.237,1.248c-.546.282-1.216.423-2.009.423h-2.129v-1.166Z"/><path class="cls-13" d="m162.309,58.931c-.45-.258-.792-.635-1.028-1.131-.236-.495-.354-1.091-.354-1.788v-.832c0-.73.113-1.353.34-1.87.227-.517.556-.91.989-1.18.431-.27.952-.405,1.56-.405.572,0,1.062.144,1.467.43.406.287.716.703.929,1.248.214.545.321,1.201.321,1.969v.661h-4.793v-1.038h3.709v-.036c-.018-.668-.169-1.186-.453-1.554-.284-.367-.678-.551-1.18-.551-.577,0-1.023.195-1.336.587-.313.391-.469.944-.469,1.66v.938c0,.678.167,1.199.502,1.564.335.365.809.547,1.421.547.296,0,.589-.065.88-.196.291-.13.549-.314.773-.551l.767.81c-.335.351-.714.622-1.136.814-.424.191-.851.288-1.283.288-.634,0-1.176-.129-1.626-.387Z"/><path class="cls-13" d="m169.671,59.198c-.351-.081-.679-.201-.986-.363-.306-.161-.583-.36-.829-.597l.674-.889c.371.289.748.508,1.131.658.384.149.756.224,1.118.224.595,0,1.049-.104,1.362-.313s.469-.512.469-.91c0-.284-.08-.496-.238-.636s-.358-.234-.598-.281c-.241-.047-.576-.09-1.009-.128-.04,0-.082,0-.126-.003-.044-.002-.085-.006-.125-.011-.018,0-.035,0-.053-.003-.017-.002-.035-.004-.053-.004-.449-.043-.827-.114-1.134-.213s-.562-.284-.767-.554-.307-.659-.307-1.166c0-.498.103-.915.311-1.251.207-.336.511-.592.912-.768s.895-.263,1.481-.263c.327,0,.645.033.955.1.311.066.609.165.896.295.287.13.555.292.807.487l-.681.881c-.335-.223-.673-.391-1.015-.505-.341-.114-.668-.171-.981-.171-.52,0-.918.1-1.19.299s-.409.488-.409.867c0,.251.075.437.225.558.15.12.34.201.572.242s.554.074.969.103c.022,0,.045.001.069.003.025.003.047.004.069.004h.04c.013,0,.027.002.04.007.481.033.889.101,1.227.202.337.102.62.304.849.605s.344.736.344,1.304c0,.502-.11.924-.331,1.265-.22.341-.548.601-.982.778-.434.178-.966.267-1.596.267-.388,0-.757-.04-1.107-.121Z"/><path class="cls-13" d="m175.505,48.876h1.15v1.237h-1.15v-1.237Zm0,2.957h1.15v7.379h-1.15v-7.379Z"/><path class="cls-13" d="m179.697,58.974c-.357-.235-.628-.576-.813-1.024-.186-.448-.278-.985-.278-1.61v-1.614c0-.635.09-1.178.271-1.628.18-.45.444-.792.79-1.027.346-.234.761-.352,1.246-.352.467,0,.883.109,1.249.327s.659.55.88.995l-.139,1.464c0-.318-.06-.604-.181-.86s-.299-.458-.533-.608c-.233-.149-.511-.224-.833-.224-.511,0-.905.168-1.183.505s-.417.81-.417,1.422v1.599c0,.602.139,1.068.417,1.397s.672.494,1.183.494c.322,0,.599-.077.83-.231.231-.154.409-.361.532-.622s.185-.552.185-.874l.093,1.55c-.154.408-.402.722-.744.942-.341.221-.766.331-1.272.331-.499,0-.926-.118-1.282-.352Zm.02,2.929c-.406-.207-.721-.497-.946-.871l.78-.754c.19.275.419.487.688.636.268.15.551.224.845.224.577,0,1.026-.172,1.342-.515.318-.344.476-.828.476-1.454v-7.336h1.151v7.159c0,.678-.116,1.258-.347,1.742s-.568.851-1.009,1.102-.972.377-1.593.377c-.519,0-.983-.103-1.388-.309Z"/><path class="cls-13" d="m186.102,51.833h1.151v7.379h-1.151v-7.379Zm4.364,2.908c0-.588-.142-1.043-.427-1.365s-.687-.483-1.207-.483c-.502,0-.892.142-1.167.427-.276.284-.413.687-.413,1.208l-.139-1.422c.225-.464.523-.81.896-1.038s.794-.341,1.266-.341c.745,0,1.321.262,1.729.785.408.524.611,1.264.611,2.222v4.479h-1.15v-4.471Z"/><path class="cls-13" d="m199.008,59.176c-.415-.095-.802-.237-1.161-.427s-.695-.427-1.008-.711l.707-.96c.384.36.807.63,1.269.81.463.18.966.27,1.508.27.762,0,1.352-.156,1.768-.469.417-.313.626-.756.626-1.329v-.007c0-.379-.093-.68-.278-.903-.186-.223-.425-.39-.718-.501-.294-.111-.671-.212-1.134-.302-.013-.005-.028-.008-.044-.01s-.029-.006-.043-.011l-.146-.028c-.661-.128-1.194-.267-1.6-.416-.405-.15-.75-.412-1.034-.79-.284-.376-.427-.906-.427-1.589v-.007c0-.64.134-1.186.4-1.638s.656-.798,1.167-1.035,1.126-.355,1.844-.355c.339,0,.676.04,1.009.121s.661.2.985.359.645.359.962.6l-.662.974c-.391-.299-.777-.522-1.156-.672-.379-.149-.758-.224-1.137-.224-.723,0-1.282.159-1.68.476-.396.318-.594.768-.594,1.351v.007c0,.374.1.668.3.881s.45.372.751.476c.3.104.714.211,1.243.32.018.005.035.009.053.014.017.005.035.009.053.014.027.005.051.009.076.014.024.005.049.009.076.014.591.133,1.084.286,1.481.459.397.173.728.447.992.825.264.376.396.887.396,1.532v.014c0,.63-.138,1.17-.416,1.617-.278.448-.681.79-1.207,1.024-.527.235-1.163.352-1.907.352-.463,0-.901-.047-1.316-.142Z"/><path class="cls-13" d="m204.911,51.833h1.176l2.182,6.633-.622,1.351-2.736-7.983Zm6.076,0l-2.922,9.106c-.106.336-.245.603-.417.8-.172.197-.383.338-.634.423s-.56.128-.926.128h-.271v-1.18h.271c.304,0,.546-.07.724-.21s.332-.382.46-.728l2.538-8.339h1.177Z"/><path class="cls-13" d="m213.463,59.198c-.351-.081-.679-.201-.986-.363-.306-.161-.583-.36-.829-.597l.674-.889c.371.289.748.508,1.131.658.384.149.756.224,1.118.224.595,0,1.049-.104,1.362-.313s.469-.512.469-.91c0-.284-.08-.496-.238-.636s-.358-.234-.598-.281c-.241-.047-.576-.09-1.009-.128-.04,0-.082,0-.126-.003-.044-.002-.085-.006-.125-.011-.018,0-.035,0-.053-.003-.017-.002-.035-.004-.053-.004-.449-.043-.827-.114-1.134-.213s-.562-.284-.767-.554-.307-.659-.307-1.166c0-.498.103-.915.311-1.251.207-.336.511-.592.912-.768s.895-.263,1.481-.263c.327,0,.645.033.955.1.311.066.609.165.896.295.287.13.555.292.807.487l-.681.881c-.335-.223-.673-.391-1.015-.505-.341-.114-.668-.171-.981-.171-.52,0-.918.1-1.19.299s-.409.488-.409.867c0,.251.075.437.225.558.15.12.34.201.572.242s.554.074.969.103c.022,0,.045.001.069.003.025.003.047.004.069.004h.04c.013,0,.027.002.04.007.481.033.889.101,1.227.202.337.102.62.304.849.605s.344.736.344,1.304c0,.502-.11.924-.331,1.265-.22.341-.548.601-.982.778-.434.178-.966.267-1.596.267-.388,0-.757-.04-1.107-.121Z"/><path class="cls-13" d="m218.669,51.833h3.094v1.095h-3.094v-1.095Zm1.094,6.92c-.258-.329-.387-.816-.387-1.461v-7.606h1.151v7.621c0,.251.049.443.149.576s.245.199.44.199h.647v1.166h-.78c-.555,0-.962-.164-1.22-.494Z"/><path class="cls-13" d="m224.798,58.931c-.45-.258-.792-.635-1.028-1.131-.236-.495-.354-1.091-.354-1.788v-.832c0-.73.113-1.353.34-1.87.227-.517.556-.91.989-1.18.431-.27.952-.405,1.56-.405.572,0,1.062.144,1.467.43.406.287.716.703.929,1.248.214.545.321,1.201.321,1.969v.661h-4.793v-1.038h3.709v-.036c-.018-.668-.169-1.186-.453-1.554-.284-.367-.678-.551-1.18-.551-.577,0-1.023.195-1.336.587-.313.391-.469.944-.469,1.66v.938c0,.678.167,1.199.502,1.564.335.365.809.547,1.421.547.296,0,.589-.065.88-.196.291-.13.549-.314.773-.551l.767.81c-.335.351-.714.622-1.136.814-.424.191-.851.288-1.283.288-.634,0-1.176-.129-1.626-.387Z"/><path class="cls-13" d="m230.874,51.833h1.151v7.379h-1.151v-7.379Zm4.198,2.908c0-.588-.131-1.043-.393-1.365s-.638-.483-1.127-.483c-.485,0-.861.144-1.127.43-.267.287-.4.693-.4,1.219l-.139-1.422c.221-.469.508-.818.863-1.049.355-.229.759-.345,1.213-.345.477,0,.884.117,1.224.352.339.234.597.577.773,1.027s.264.993.264,1.628v4.479h-1.151v-4.471Zm4.198,0c0-.588-.136-1.043-.407-1.365s-.651-.483-1.14-.483c-.481,0-.85.156-1.111.469-.26.313-.39.754-.39,1.322l-.337-1.244c.216-.55.511-.972.886-1.269.374-.296.807-.444,1.296-.444.494,0,.917.117,1.269.352.353.234.622.577.807,1.027.185.45.278.993.278,1.628v4.479h-1.151v-4.471Z"/><path class="cls-9" d="m113.766,40.726c.154.307-.051.666-.462.666h-10.154c-.462,0-.872-.257-1.078-.666l-1.538-5.386h-9.642l-1.538,5.386c-.205.409-.615.666-1.077.666h-10.155c-.41,0-.615-.359-.462-.666l11.591-34.055c.154-.308.718-.666,1.231-.666h10.462c.513,0,1.077.358,1.231.666l11.59,34.055Zm-18.053-22.464l-2.77,9.744h5.539l-2.77-9.744Z"/><path class="cls-9" d="m125.771,7.184c0,3.026-2.256,5.078-5.642,5.078s-5.642-2.052-5.642-5.078c0-3.18,2.257-5.282,5.642-5.282s5.642,2.102,5.642,5.282Zm-1.077,6.001c.41,0,.77.359.77.718v26.721c0,.41-.359.77-.77.77h-9.026c-.41,0-.77-.359-.77-.77V13.903c0-.358.359-.718.77-.718h9.026Z"/><path class="cls-9" d="m145.775,30.007c0,.462-.358.769-.769.769h-15.13c-.358,0-.718-.307-.718-.769v-5.642c0-.41.359-.718.718-.718h15.13c.41,0,.769.308.769.718v5.642Z"/><path class="cls-9" d="m162.086,6.005c10.873,0,18.104,7.026,18.104,17.693,0,10.566-7.231,17.694-18.104,17.694h-11.899c-.358,0-.718-.359-.718-.77V6.774c0-.41.359-.769.718-.769h11.899Zm.615,26.156c3.95,0,6.616-3.385,6.616-8.462s-2.666-8.462-6.616-8.462h-2.667v16.925h2.667Z"/><path class="cls-9" d="m195.683,6.005c10.873,0,18.104,7.026,18.104,17.693,0,10.566-7.231,17.694-18.104,17.694h-11.899c-.358,0-.718-.359-.718-.77V6.774c0-.41.359-.769.718-.769h11.899Zm.615,26.156c3.95,0,6.616-3.385,6.616-8.462s-2.666-8.462-6.616-8.462h-2.667v16.925h2.667Z"/><path class="cls-9" d="m219.484,30.622c.154-.513.513-.666.923-.41,2.359,1.334,5.18,2.308,7.129,2.462,1.642,0,2.718-.769,2.718-1.949,0-3.026-14.412-2.872-14.412-14.053,0-6.872,5.18-11.437,12.976-11.437,3.642,0,8.257,1.487,11.488,3.693.41.256.565.666.41.923l-3.231,7.231c-.154.513-.513.667-.923.41-2.513-1.436-5.436-2.513-7.231-2.667-1.59,0-2.616.718-2.616,1.846,0,3.026,14.514,2.821,14.514,14.104,0,6.822-5.282,11.386-13.181,11.386-4.308,0-8.822-1.334-11.385-3.386-.41-.307-.564-.666-.41-.923l3.231-7.231Z"/><path class="cls-9" d="m28.934,51.928c-2.465-.467-4.929-1.061-7.386-1.78.972,4.563,2.455,9.038,4.447,13.418,1.722-2.904,3.24-5.813,4.552-8.72-.896-.686-1.505-1.729-1.613-2.917Z"/><path class="cls-7" d="m28.934,51.928c-2.465-.467-4.929-1.061-7.386-1.78.972,4.563,2.455,9.038,4.447,13.418,1.722-2.904,3.24-5.813,4.552-8.72-.896-.686-1.505-1.729-1.613-2.917Z"/><path class="cls-9" d="m18.596,46.739c-.922-6.112-.988-12.365-.202-18.682-.963.315-1.887.638-2.773.966-6.765,2.502-12.001,5.505-15.296,7.661.061.428.131.853.209,1.276,3.476,2.227,8.622,5.152,14.907,7.619,1.006.395,2.059.784,3.154,1.161Z"/><path class="cls-14" d="m18.596,46.739c-.922-6.112-.988-12.365-.202-18.682-.963.315-1.887.638-2.773.966-6.765,2.502-12.001,5.505-15.296,7.661.061.428.131.853.209,1.276,3.476,2.227,8.622,5.152,14.907,7.619,1.006.395,2.059.784,3.154,1.161Z"/><path class="cls-9" d="m25.86,16.032c-.722.609-1.655.976-2.674.976-.041,0-.082,0-.123-.002-.317,1.099-.617,2.229-.894,3.389-.347,1.452-.649,2.898-.907,4.337,4.094-1.14,8.278-1.964,12.526-2.465.037-.239.094-.471.17-.694-2.804-2.179-5.544-4.012-8.099-5.541Z"/><path class="cls-12" d="m25.86,16.032c-.722.609-1.655.976-2.674.976-.041,0-.082,0-.123-.002-.317,1.099-.617,2.229-.894,3.389-.347,1.452-.649,2.898-.907,4.337,4.094-1.14,8.278-1.964,12.526-2.465.037-.239.094-.471.17-.694-2.804-2.179-5.544-4.012-8.099-5.541Z"/><path class="cls-9" d="m36.539,10.299c.864,2.8,1.515,5.636,1.953,8.502,1.605.233,2.913,1.384,3.372,2.903,4.624-.101,9.337.172,14.035.814,2.387.326,4.794.751,7.209,1.271C59.464,10.151,47.062.09,32.296,0c.012.022.023.044.035.066,1.714,3.297,3.13,6.74,4.208,10.233Z"/><path class="cls-2" d="m36.539,10.299c.864,2.8,1.515,5.636,1.953,8.502,1.605.233,2.913,1.384,3.372,2.903,4.624-.101,9.337.172,14.035.814,2.387.326,4.794.751,7.209,1.271C59.464,10.151,47.062.09,32.296,0c.012.022.023.044.035.066,1.714,3.297,3.13,6.74,4.208,10.233Z"/><path class="cls-9" d="m63.675,26.325c-7.128-1.609-13.777-2.262-19.871-2.262-.65,0-1.294.007-1.932.022-.088.297-.208.581-.357.847,1.597,1.509,3.129,3.079,4.591,4.709,3.315,3.693,6.308,7.733,8.895,12.006,1.391,2.297,2.68,4.69,3.862,7.161.252-.063.505-.128.759-.194,2.902-4.826,4.571-10.477,4.571-16.518,0-1.97-.178-3.899-.518-5.77Z"/><path class="cls-11" d="m63.675,26.325c-7.128-1.609-13.777-2.262-19.871-2.262-.65,0-1.294.007-1.932.022-.088.297-.208.581-.357.847,1.597,1.509,3.129,3.079,4.591,4.709,3.315,3.693,6.308,7.733,8.895,12.006,1.391,2.297,2.68,4.69,3.862,7.161.252-.063.505-.128.759-.194,2.902-4.826,4.571-10.477,4.571-16.518,0-1.97-.178-3.899-.518-5.77Z"/><path class="cls-9" d="m21.05,47.539c2.586.796,5.379,1.507,8.35,2.063.697-1.312,2.078-2.205,3.667-2.205.131,0,.261.006.389.018,2.288-6.904,3.404-13.768,3.329-20.505-1.194-.329-2.172-1.177-2.676-2.287-4.922.573-9.36,1.539-13.258,2.675-.983,6.911-.915,13.665.198,20.241Z"/><path class="cls-8" d="m21.05,47.539c2.586.796,5.379,1.507,8.35,2.063.697-1.312,2.078-2.205,3.667-2.205.131,0,.261.006.389.018,2.288-6.904,3.404-13.768,3.329-20.505-1.194-.329-2.172-1.177-2.676-2.287-4.922.573-9.36,1.539-13.258,2.675-.983,6.911-.915,13.665.198,20.241Z"/><path class="cls-9" d="m14.701,26.861c1.342-.498,2.697-.961,4.062-1.389.305-1.9.687-3.805,1.146-5.713.279-1.161.587-2.323.923-3.484-1.084-.749-1.795-2-1.795-3.418,0-.161.009-.32.027-.477-3.453-1.657-6.537-2.852-8.942-3.678C3.891,14.557,0,22.872,0,32.096c0,.661.02,1.318.06,1.969,1.713-1.08,3.508-2.112,5.357-3.078,2.976-1.555,6.1-2.943,9.284-4.126Z"/><path class="cls-5" d="m14.701,26.861c1.342-.498,2.697-.961,4.062-1.389.305-1.9.687-3.805,1.146-5.713.279-1.161.587-2.323.923-3.484-1.084-.749-1.795-2-1.795-3.418,0-.161.009-.32.027-.477-3.453-1.657-6.537-2.852-8.942-3.678C3.891,14.557,0,22.872,0,32.096c0,.661.02,1.318.06,1.969,1.713-1.08,3.508-2.112,5.357-3.078,2.976-1.555,6.1-2.943,9.284-4.126Z"/><path class="cls-9" d="m14.503,47.732c-3.162-1.245-6.308-2.704-9.351-4.338-1.301-.698-2.584-1.429-3.841-2.187,3.093,10.468,11.38,18.707,21.877,21.733-1.864-4.409-3.253-8.962-4.141-13.568-1.519-.499-3.035-1.046-4.545-1.64Z"/><path class="cls-1" d="m14.503,47.732c-3.162-1.245-6.308-2.704-9.351-4.338-1.301-.698-2.584-1.429-3.841-2.187,3.093,10.468,11.38,18.707,21.877,21.733-1.864-4.409-3.253-8.962-4.141-13.568-1.519-.499-3.035-1.046-4.545-1.64Z"/><path class="cls-9" d="m53.336,52.346c-3.607.574-7.278.863-10.954.863-1.161,0-2.323-.029-3.483-.086-.647-.032-1.294-.073-1.942-.124-.588,1.577-2.108,2.7-3.89,2.7-.096,0-.192-.003-.286-.01-1.208,2.672-2.599,5.369-4.142,8.034-.052.089-.104.179-.156.268,1.186.133,2.392.201,3.614.201,10.382,0,19.612-4.929,25.479-12.574-.011-.025-.023-.05-.034-.076-1.399.312-2.802.58-4.205.804Z"/><path class="cls-4" d="m53.336,52.346c-3.607.574-7.278.863-10.954.863-1.161,0-2.323-.029-3.483-.086-.647-.032-1.294-.073-1.942-.124-.588,1.577-2.108,2.7-3.89,2.7-.096,0-.192-.003-.286-.01-1.208,2.672-2.599,5.369-4.142,8.034-.052.089-.104.179-.156.268,1.186.133,2.392.201,3.614.201,10.382,0,19.612-4.929,25.479-12.574-.011-.025-.023-.05-.034-.076-1.399.312-2.802.58-4.205.804Z"/><path class="cls-9" d="m27.337,12.857c0,.423-.063.831-.181,1.215,2.851,1.71,5.578,3.57,8.17,5.572.255-.201.534-.372.832-.509-.409-2.708-1.019-5.39-1.831-8.038-1.242-4.054-2.837-7.628-4.446-10.631-.111.203-.223.409-.335.62-1.169,2.183-2.562,5.039-3.909,8.421,1.031.755,1.7,1.975,1.7,3.35Z"/><path class="cls-3" d="m27.337,12.857c0,.423-.063.831-.181,1.215,2.851,1.71,5.578,3.57,8.17,5.572.255-.201.534-.372.832-.509-.409-2.708-1.019-5.39-1.831-8.038-1.242-4.054-2.837-7.628-4.446-10.631-.111.203-.223.409-.335.62-1.169,2.183-2.562,5.039-3.909,8.421,1.031.755,1.7,1.975,1.7,3.35Z"/><path class="cls-9" d="m37.114,50.621c1.732.134,3.508.206,5.324.206,4.474,0,9.187-.438,14.074-1.476-4.677-9.589-10.642-17.036-16.701-22.762-.207.108-.425.2-.651.272.051,3.635-.23,7.303-.846,10.989-.453,2.708-1.094,5.461-1.907,8.183-.227.76-.469,1.523-.726,2.289.709.575,1.224,1.379,1.434,2.299Z"/><path class="cls-10" d="m37.114,50.621c1.732.134,3.508.206,5.324.206,4.474,0,9.187-.438,14.074-1.476-4.677-9.589-10.642-17.036-16.701-22.762-.207.108-.425.2-.651.272.051,3.635-.23,7.303-.846,10.989-.453,2.708-1.094,5.461-1.907,8.183-.227.76-.469,1.523-.726,2.289.709.575,1.224,1.379,1.434,2.299Z"/><path class="cls-9" d="m19.984,10.216c.761-.922,1.913-1.51,3.202-1.51.079,0,.158.002.235.007.024-.06.047-.119.071-.179,1.115-2.789,2.386-5.537,3.78-8.175-5.653.852-10.824,3.178-15.107,6.575,1.774.642,3.554,1.356,5.314,2.131.839.369,1.674.753,2.503,1.151Z"/><path class="cls-6" d="m19.984,10.216c.761-.922,1.913-1.51,3.202-1.51.079,0,.158.002.235.007.024-.06.047-.119.071-.179,1.115-2.789,2.386-5.537,3.78-8.175-5.653.852-10.824,3.178-15.107,6.575,1.774.642,3.554,1.356,5.314,2.131.839.369,1.674.753,2.503,1.151Z"/></g></svg>